<svg xmlns="http://www.w3.org/2000/svg" xmlns:xlink="http://www.w3.org/1999/xlink" width="1254" height="836" viewBox="0 0 1254 836">
  <defs>
    <linearGradient id="linear-gradient" x1="0.323" y1="0.374" x2="1" y2="0.984" gradientUnits="objectBoundingBox">
      <stop offset="0" stop-color="#fff"/>
      <stop offset="0.464" stop-color="#f8fdfb"/>
      <stop offset="1" stop-color="#f2fbf8"/>
    </linearGradient>
    <clipPath id="clip-path">
      <rect id="Rectangle_5651" data-name="Rectangle 5651" width="1174" height="690" transform="translate(34 73)" fill="#fff" stroke="#707070" stroke-width="1"/>
    </clipPath>
    <clipPath id="clip-cover-img">
      <rect width="1254" height="836"/>
    </clipPath>
  </defs>
  <g id="cover-img" clip-path="url(#clip-cover-img)">
    <rect width="1254" height="836" fill="#fff"/>
    <g id="BACKGROUND">
      <g id="Group_1" data-name="Group 1">
        <rect id="Rectangle_1" data-name="Rectangle 1" width="1254" height="836" transform="translate(0 0)" fill="#e7e8eb"/>
        <path id="Path_1" data-name="Path 1" d="M1254,836V324.317A547.078,547.078,0,0,0,1101.944,302.9C804.463,302.9,562.425,540.3,554.985,836M0,0V525.424C107.676,425.539,175.041,282.8,175.041,124.329A548.863,548.863,0,0,0,160.846,0Z" fill="#dadde2"/>
      </g>
    </g>
    <g id="Mask_Group_7" data-name="Mask Group 7" clip-path="url(#clip-path)">
      <g id="Group_4272" data-name="Group 4272" transform="translate(34 73)">
        <g id="BG" fill="#fff" stroke="#707070" stroke-width="1">
          <rect width="1174" height="690" stroke="none"/>
          <rect x="0.5" y="0.5" width="1173" height="689" fill="none"/>
        </g>
        <g id="Left_Block" data-name="Left Block" transform="translate(-2 -2)">
          <rect id="Bg-2" data-name="Bg" width="635" height="690" transform="translate(2 2)" fill="#001b2e"/>
          <g id="Group_3904" data-name="Group 3904" transform="translate(120 427)">
            <g id="Group_3910" data-name="Group 3910">
              <g id="Group_3903" data-name="Group 3903" transform="translate(0 73)">
                <text id="We_are_a_national_pharmacy_offering_services_in_specialized_therapies." data-name="We are a national pharmacy offering services in specialized therapies." fill="#fff" font-size="18" font-family="OpenSans-Bold, Open Sans" font-weight="700"><tspan x="0" y="19">We are a national pharmacy offering </tspan><tspan x="0" y="41">services in specialized therapies.</tspan></text>
                <text id="A_committed_partner_to_patients_and_providers_" data-name="A committed partner to patients and providers!" transform="translate(0 80)" fill="#ececec" font-size="15" font-family="OpenSans, Open Sans"><tspan x="0" y="0">A committed partner to patients and providers!</tspan></text>
              </g>
            </g>
          </g>
        </g>
        <g id="Group_2744" data-name="Group 2744" transform="translate(750.213 181)">
          <g id="Button" transform="translate(-0.213 283)">
            <rect id="Rectangle_4885" data-name="Rectangle 4885" width="313" height="45" rx="5" fill="#4f8da6"/>
            <g id="Group_2457" data-name="Group 2457" transform="translate(140 14)">
              <text id="Login" transform="translate(17 14)" fill="#fff" font-size="14" font-family="Lato-Regular, Lato"><tspan x="-16.625" y="0">Login</tspan></text>
            </g>
          </g>
          <g id="Group_2513" data-name="Group 2513">
            <g id="Group_2504" data-name="Group 2504" transform="translate(1)">
              <g id="Group_2503" data-name="Group 2503">
                <text id="Welcome" transform="translate(-0.213 22)" fill="#181c32" font-size="22" font-family="Lato-Bold, Lato" font-weight="700"><tspan x="0" y="0">Welcome</tspan></text>
                <text id="Login_with_the_credentials_you_received_on_email." data-name="Login with the credentials you received on email." transform="translate(-0.213 52)" fill="#5e6278" font-size="14" font-family="Lato-Regular, Lato"><tspan x="0" y="0">Login with the credentials you received on email.</tspan></text>
              </g>
            </g>
            <g id="Group_2509" data-name="Group 2509" transform="translate(0 95)">
              <g id="Group_2491" data-name="Group 2491">
                <g id="mobile_number" data-name="mobile number" transform="translate(-0.213)">
                  <g id="Group_2451" data-name="Group 2451">
                    <g id="Rectangle_85" data-name="Rectangle 85" transform="translate(0 22)" fill="#fff" stroke="#e7ebec" stroke-width="1">
                      <rect width="313" height="45" rx="5" stroke="none"/>
                      <rect x="0.5" y="0.5" width="312" height="44" rx="4.5" fill="none"/>
                    </g>
                    <text id="markschultz_optiorx.com" data-name="markschultz@optiorx.com" transform="translate(13 50)" fill="#181c32" font-size="14" font-family="Lato-Regular, Lato"><tspan x="0" y="0">markschultz@optiorx.com</tspan></text>
                    <text id="Email" transform="translate(0 13)" fill="#8a8b8f" font-size="13" font-family="Lato-Medium, Lato" font-weight="500"><tspan x="0" y="0">Email</tspan></text>
                  </g>
                </g>
                <g id="otp" transform="translate(0 87)">
                  <g id="Group_2456" data-name="Group 2456">
                    <g id="Rectangle_85-2" data-name="Rectangle 85" transform="translate(-0.213 26)" fill="#fff" stroke="#e7ebec" stroke-width="1">
                      <rect width="313" height="45" rx="5" stroke="none"/>
                      <rect x="0.5" y="0.5" width="312" height="44" rx="4.5" fill="none"/>
                    </g>
                    <text id="Password" transform="translate(-0.213 13)" fill="#5e6278" font-size="13" font-family="Lato-Semibold, Lato" font-weight="600"><tspan x="0" y="0">Password</tspan></text>
                    <text id="_" data-name="********" transform="translate(12.787 54)" fill="#181c32" font-size="14" font-family="Lato-Medium, Lato" font-weight="500"><tspan x="0" y="0">********</tspan></text>
                  </g>
                </g>
              </g>
            </g>
          </g>
        </g>
        <g id="Group_3916" data-name="Group 3916" transform="translate(58.795 100.197)">
          <g id="BACKGROUND-2" data-name="BACKGROUND" transform="translate(78.205 67.176)">
            <path id="Path_1-2" data-name="Path 1" d="M385.307,112.048c3.189-35.067-37.091-35.225-37.091-35.225l-220.029-2.9s-34.706,3.8-36.326,31.528c-2.69,46.044,42.053,38.065,42.053,38.065s52.355-.214,55.877,9.077c9.423,24.857-18.136,24.157-18.136,24.157s-73.723-2.56-106.46,1.842c-15.923,2.142-39.839,17.262-36.7,37.557C30.851,231.4,44.852,239.294,57.392,243c27.818,8.225,58.878,5.75,87.512,5.907,7.6.041,41.882-.071,41.794,13.512-.094,14.69-8.895,17.57-29.117,18.036-27.654.639-88.749-1.58-88.089,36.95.492,28.775,35.979,28.443,55.308,28.98,46.135,1.28,179.893,4.814,179.893,4.814s17.387,1,17.236-13.537c-.166-16.016-18.251-14.816-18.251-14.816l-47.263-3.185s-20.681-2.958-18.73-18.9c2.17-17.742,22.085-16.661,35.053-17.714,27.87-2.263,48.448.085,76.486-3.048,33.314-3.722,42.481-21.31,40.584-46.616-3.6-47.98-65.56-38.514-94.188-39.489-11.357-.387-47.38-1.052-50.533-17.622-3.322-17.453,5.892-29.12,39.2-30.451C314.082,144.637,380.977,159.666,385.307,112.048Z" transform="translate(-28.215 -73.925)" fill="#fff" fill-rule="evenodd" opacity="0.04"/>
          </g>
          <g id="Group_3911" data-name="Group 3911" transform="translate(132.93 109.799)">
            <g id="Group_49" data-name="Group 49" transform="translate(0 0)">
              <g id="Group_15" data-name="Group 15" transform="translate(108.523 0)">
                <rect id="Rectangle_3" data-name="Rectangle 3" width="85.493" height="26.215" rx="7.429" transform="translate(56.17 9.763) rotate(111.866)" fill="#a2bfcf"/>
                <g id="Group_10" data-name="Group 10" transform="translate(9.836 24.511)">
                  <rect id="Rectangle_4" data-name="Rectangle 4" width="32.671" height="26.215" transform="translate(0 30.321) rotate(-68.134)" fill="#6dbce9"/>
                </g>
                <g id="Group_14" data-name="Group 14" transform="translate(17.351 31.208)" style="mix-blend-mode: multiply;isolation: isolate">
                  <g id="Group_11" data-name="Group 11" transform="translate(3.882 9.673)">
                    <path id="Path_9" data-name="Path 9" d="M477.007,216.786a1.541,1.541,0,1,0-.856-2A1.541,1.541,0,0,0,477.007,216.786Z" transform="translate(-465.419 -209.552)" fill="#ec9294"/>
                    <path id="Path_10" data-name="Path 10" d="M471.547,214.595a1.541,1.541,0,1,0-.856-2A1.541,1.541,0,0,0,471.547,214.595Z" transform="translate(-465.27 -209.492)" fill="#ec9294"/>
                    <path id="Path_11" data-name="Path 11" d="M466.088,212.4a1.541,1.541,0,1,0-.856-2A1.54,1.54,0,0,0,466.088,212.4Z" transform="translate(-465.12 -209.433)" fill="#ec9294"/>
                  </g>
                  <g id="Group_12" data-name="Group 12" transform="translate(0 19.345)">
                    <path id="Path_12" data-name="Path 12" d="M473.017,226.73a1.541,1.541,0,1,0-.856-2A1.539,1.539,0,0,0,473.017,226.73Z" transform="translate(-461.428 -219.496)" fill="#ec9294"/>
                    <path id="Path_13" data-name="Path 13" d="M467.557,224.539a1.541,1.541,0,1,0-.856-2A1.541,1.541,0,0,0,467.557,224.539Z" transform="translate(-461.279 -219.436)" fill="#ec9294"/>
                    <path id="Path_14" data-name="Path 14" d="M462.1,222.348a1.541,1.541,0,1,0-.856-2A1.541,1.541,0,0,0,462.1,222.348Z" transform="translate(-461.13 -219.377)" fill="#ec9294"/>
                  </g>
                  <g id="Group_13" data-name="Group 13" transform="translate(7.764)">
                    <path id="Path_15" data-name="Path 15" d="M481,206.842a1.541,1.541,0,1,0-.856-2A1.542,1.542,0,0,0,481,206.842Z" transform="translate(-469.409 -199.608)" fill="#ec9294"/>
                    <path id="Path_16" data-name="Path 16" d="M475.538,204.651a1.541,1.541,0,1,0-.856-2A1.542,1.542,0,0,0,475.538,204.651Z" transform="translate(-469.26 -199.548)" fill="#ec9294"/>
                    <path id="Path_17" data-name="Path 17" d="M470.078,202.46a1.541,1.541,0,1,0-.856-2A1.541,1.541,0,0,0,470.078,202.46Z" transform="translate(-469.111 -199.489)" fill="#ec9294"/>
                  </g>
                  <path id="Path_18" data-name="Path 18" d="M476.273,210.718a1.541,1.541,0,1,0-.856-2A1.539,1.539,0,0,0,476.273,210.718Z" transform="translate(-461.516 -199.714)" fill="#ec9294"/>
                  <path id="Path_19" data-name="Path 19" d="M472.368,220.448a1.541,1.541,0,1,0-.856-2A1.542,1.542,0,0,0,472.368,220.448Z" transform="translate(-461.41 -199.979)" fill="#ec9294"/>
                  <path id="Path_20" data-name="Path 20" d="M466.908,218.257a1.541,1.541,0,1,0-.856-2A1.541,1.541,0,0,0,466.908,218.257Z" transform="translate(-461.261 -199.92)" fill="#ec9294"/>
                  <path id="Path_21" data-name="Path 21" d="M470.813,208.527a1.541,1.541,0,1,0-.856-2A1.54,1.54,0,0,0,470.813,208.527Z" transform="translate(-461.367 -199.654)" fill="#ec9294"/>
                </g>
              </g>
              <g id="Group_34" data-name="Group 34" transform="translate(35.667 17.541)">
                <g id="Group_16" data-name="Group 16">
                  <path id="Path_22" data-name="Path 22" d="M426.608,325.86l28.84-4.668a7.775,7.775,0,0,0,6.325-8.991L442.328,192.072a7.774,7.774,0,0,0-8.838-6.537L404.65,190.2Z" transform="translate(-369.381 -185.438)" fill="#e0ebf0"/>
                  <path id="Path_23" data-name="Path 23" d="M374.821,195.005A7.774,7.774,0,0,0,368.5,204L387.94,324.125a7.773,7.773,0,0,0,8.837,6.537l28.841-4.668L403.66,190.337Z" transform="translate(-368.392 -185.571)" fill="#fafafc"/>
                </g>
                <g id="Group_33" data-name="Group 33" transform="translate(10.104 11.054)">
                  <g id="Group_19" data-name="Group 19">
                    <g id="Group_17" data-name="Group 17" transform="translate(36.404)">
                      <path id="Path_24" data-name="Path 24" d="M427.717,216.526a9.925,9.925,0,1,1,8.212-11.384A9.936,9.936,0,0,1,427.717,216.526Z" transform="translate(-416.205 -196.802)" fill="#efeefc" style="mix-blend-mode: multiply;isolation: isolate"/>
                      <circle id="Ellipse_2" data-name="Ellipse 2" cx="9.925" cy="9.925" r="9.925" transform="matrix(0.338, -0.941, 0.941, 0.338, 1.173, 40.261)" fill="#efeefc" style="mix-blend-mode: multiply;isolation: isolate"/>
                      <path id="Path_25" data-name="Path 25" d="M435.819,266.581a9.925,9.925,0,1,1,8.213-11.383A9.936,9.936,0,0,1,435.819,266.581Z" transform="translate(-416.426 -198.168)" fill="#efeefc" style="mix-blend-mode: multiply;isolation: isolate"/>
                      <path id="Path_26" data-name="Path 26" d="M439.87,291.609a9.925,9.925,0,1,1,8.213-11.384A9.936,9.936,0,0,1,439.87,291.609Z" transform="translate(-416.537 -198.851)" fill="#efeefc" style="mix-blend-mode: multiply;isolation: isolate"/>
                      <path id="Path_27" data-name="Path 27" d="M443.921,316.637a9.925,9.925,0,1,1,8.213-11.384A9.936,9.936,0,0,1,443.921,316.637Z" transform="translate(-416.647 -199.535)" fill="#efeefc" style="mix-blend-mode: multiply;isolation: isolate"/>
                    </g>
                    <g id="Group_18" data-name="Group 18" transform="translate(0 5.892)">
                      <path id="Path_28" data-name="Path 28" d="M390.292,222.583A9.926,9.926,0,1,1,398.5,211.2,9.937,9.937,0,0,1,390.292,222.583Z" transform="translate(-378.779 -202.859)" fill="#efeefc" style="mix-blend-mode: multiply;isolation: isolate"/>
                      <path id="Path_29" data-name="Path 29" d="M394.343,247.611a9.926,9.926,0,1,1,8.212-11.384A9.937,9.937,0,0,1,394.343,247.611Z" transform="translate(-378.89 -203.542)" fill="#efeefc" style="mix-blend-mode: multiply;isolation: isolate"/>
                      <path id="Path_30" data-name="Path 30" d="M398.394,272.639a9.925,9.925,0,1,1,8.212-11.384A9.937,9.937,0,0,1,398.394,272.639Z" transform="translate(-379 -204.225)" fill="#efeefc" style="mix-blend-mode: multiply;isolation: isolate"/>
                      <path id="Path_31" data-name="Path 31" d="M402.445,297.667a9.925,9.925,0,1,1,8.212-11.384A9.937,9.937,0,0,1,402.445,297.667Z" transform="translate(-379.111 -204.908)" fill="#efeefc" style="mix-blend-mode: multiply;isolation: isolate"/>
                      <path id="Path_32" data-name="Path 32" d="M406.5,322.694a9.925,9.925,0,1,1,8.212-11.384A9.938,9.938,0,0,1,406.5,322.694Z" transform="translate(-379.221 -205.592)" fill="#efeefc" style="mix-blend-mode: multiply;isolation: isolate"/>
                    </g>
                  </g>
                  <g id="Group_32" data-name="Group 32" transform="translate(2.055 2.054)">
                    <g id="Group_30" data-name="Group 30" transform="translate(0 0)">
                      <g id="Group_3913" data-name="Group 3913">
                        <path id="Path_34" data-name="Path 34" d="M387.505,205.074a7.871,7.871,0,0,0-3.347,14.152l9.21-12.766A7.849,7.849,0,0,0,387.505,205.074Z" transform="translate(-380.892 -199.079)" fill="#a2bfcf"/>
                        <path id="Path_36" data-name="Path 36" d="M391.556,230.1a7.871,7.871,0,0,0-3.347,14.152l9.21-12.766A7.849,7.849,0,0,0,391.556,230.1Z" transform="translate(-381.003 -199.762)" fill="#a2bfcf"/>
                        <path id="Path_38" data-name="Path 38" d="M395.607,255.13a7.871,7.871,0,0,0-3.347,14.152l9.21-12.766A7.845,7.845,0,0,0,395.607,255.13Z" transform="translate(-381.113 -200.446)" fill="#a2bfcf"/>
                        <path id="Path_40" data-name="Path 40" d="M399.658,280.157a7.871,7.871,0,0,0-3.347,14.153l9.21-12.767A7.849,7.849,0,0,0,399.658,280.157Z" transform="translate(-381.224 -201.129)" fill="#a2bfcf"/>
                        <path id="Path_42" data-name="Path 42" d="M403.709,305.185a7.871,7.871,0,0,0-3.347,14.152l9.21-12.766A7.84,7.84,0,0,0,403.709,305.185Z" transform="translate(-381.334 -201.812)" fill="#a2bfcf"/>
                        <path id="Path_44" data-name="Path 44" d="M424.931,199.016a7.871,7.871,0,0,0-3.347,14.153l9.209-12.767A7.847,7.847,0,0,0,424.931,199.016Z" transform="translate(-381.913 -198.914)" fill="#a2bfcf"/>
                        <path id="Path_46" data-name="Path 46" d="M428.982,224.044a7.87,7.87,0,0,0-3.347,14.152l9.209-12.766A7.847,7.847,0,0,0,428.982,224.044Z" transform="translate(-382.024 -199.597)" fill="#a2bfcf"/>
                        <path id="Path_48" data-name="Path 48" d="M433.033,249.072a7.87,7.87,0,0,0-3.347,14.152l9.209-12.766A7.846,7.846,0,0,0,433.033,249.072Z" transform="translate(-382.134 -200.28)" fill="#a2bfcf"/>
                      </g>
                      <g id="Group_3912" data-name="Group 3912" transform="translate(3.266 1.488)">
                        <path id="Path_33" data-name="Path 33" d="M393.46,206.5l-9.21,12.766a7.871,7.871,0,0,0,9.21-12.766Z" transform="translate(-384.25 -200.609)" fill="#c8e8ff"/>
                        <path id="Path_35" data-name="Path 35" d="M397.511,231.53,388.3,244.3a7.871,7.871,0,0,0,9.21-12.766Z" transform="translate(-384.361 -201.293)" fill="#c8e8ff"/>
                        <path id="Path_37" data-name="Path 37" d="M401.562,256.558l-9.21,12.766a7.871,7.871,0,0,0,9.21-12.766Z" transform="translate(-384.471 -201.976)" fill="#c8e8ff"/>
                        <path id="Path_39" data-name="Path 39" d="M405.613,281.585l-9.21,12.767a7.871,7.871,0,0,0,9.21-12.767Z" transform="translate(-384.582 -202.659)" fill="#c8e8ff"/>
                        <path id="Path_41" data-name="Path 41" d="M409.664,306.613l-9.21,12.766a7.871,7.871,0,0,0,9.21-12.766Z" transform="translate(-384.692 -203.342)" fill="#c8e8ff"/>
                        <path id="Path_43" data-name="Path 43" d="M430.885,200.444l-9.209,12.767a7.871,7.871,0,0,0,9.209-12.767Z" transform="translate(-385.272 -200.444)" fill="#c8e8ff"/>
                        <path id="Path_45" data-name="Path 45" d="M434.936,225.472l-9.209,12.766a7.87,7.87,0,1,0,9.209-12.766Z" transform="translate(-385.382 -201.127)" fill="#c8e8ff"/>
                        <path id="Path_47" data-name="Path 47" d="M438.987,250.5l-9.209,12.766a7.87,7.87,0,1,0,9.209-12.766Z" transform="translate(-385.493 -201.81)" fill="#c8e8ff"/>
                      </g>
                      <g id="Group_28" data-name="Group 28" transform="translate(48.225 73.034)">
                        <path id="Path_49" data-name="Path 49" d="M443.038,275.528l-9.209,12.766a7.87,7.87,0,1,0,9.209-12.766Z" transform="translate(-430.561 -274.039)" fill="#fc462d"/>
                        <path id="Path_50" data-name="Path 50" d="M437.084,274.1a7.871,7.871,0,0,0-3.347,14.153l9.209-12.766A7.843,7.843,0,0,0,437.084,274.1Z" transform="translate(-430.47 -273.997)" fill="#fd6b57"/>
                      </g>
                      <g id="Group_29" data-name="Group 29" transform="translate(52.165 97.378)">
                        <path id="Path_51" data-name="Path 51" d="M447.089,300.555l-9.209,12.766a7.87,7.87,0,1,0,9.209-12.766Z" transform="translate(-434.613 -299.067)" fill="#fc462d"/>
                        <path id="Path_52" data-name="Path 52" d="M441.135,299.127a7.87,7.87,0,0,0-3.347,14.152L447,300.513A7.846,7.846,0,0,0,441.135,299.127Z" transform="translate(-434.521 -299.025)" fill="#fd6b57"/>
                      </g>
                    </g>
                    <g id="Group_31" data-name="Group 31" transform="translate(2.305 2.378)">
                      <path id="Path_60" data-name="Path 60" d="M437.469,276.142a5.568,5.568,0,0,0-3.827,8.452" transform="translate(-384.613 -203.4)" fill="none" stroke="#fc462d" stroke-linecap="round" stroke-linejoin="round" stroke-width="1" opacity="0.84" style="mix-blend-mode: screen;isolation: isolate"/>
                      <g id="Group_3914" data-name="Group 3914" transform="translate(0 0)">
                        <path id="Path_53" data-name="Path 53" d="M387.939,207.416a5.568,5.568,0,0,0-3.827,8.452" transform="translate(-383.262 -201.524)" fill="none" stroke="#0f3246" stroke-linecap="round" stroke-linejoin="round" stroke-width="1" opacity="0.84" style="mix-blend-mode: screen;isolation: isolate"/>
                        <path id="Path_54" data-name="Path 54" d="M425.364,201.359a5.567,5.567,0,0,0-3.826,8.451" transform="translate(-384.283 -201.359)" fill="none" stroke="#0f3246" stroke-linecap="round" stroke-linejoin="round" stroke-width="1" opacity="0.84" style="mix-blend-mode: screen;isolation: isolate"/>
                        <path id="Path_55" data-name="Path 55" d="M391.99,232.444a5.568,5.568,0,0,0-3.827,8.452" transform="translate(-383.372 -202.208)" fill="none" stroke="#0f3246" stroke-linecap="round" stroke-linejoin="round" stroke-width="1" opacity="0.84" style="mix-blend-mode: screen;isolation: isolate"/>
                        <path id="Path_56" data-name="Path 56" d="M429.415,226.386a5.568,5.568,0,0,0-3.826,8.452" transform="translate(-384.394 -202.042)" fill="none" stroke="#0f3246" stroke-linecap="round" stroke-linejoin="round" stroke-width="1" opacity="0.84" style="mix-blend-mode: screen;isolation: isolate"/>
                        <path id="Path_57" data-name="Path 57" d="M395.992,257.172a5.57,5.57,0,0,0-3.827,8.452" transform="translate(-383.481 -202.882)" fill="none" stroke="#0f3246" stroke-linecap="round" stroke-linejoin="round" stroke-width="1" opacity="0.84" style="mix-blend-mode: screen;isolation: isolate"/>
                        <path id="Path_58" data-name="Path 58" d="M433.418,251.114a5.568,5.568,0,0,0-3.827,8.452" transform="translate(-384.503 -202.717)" fill="none" stroke="#0f3246" stroke-linecap="round" stroke-linejoin="round" stroke-width="1" opacity="0.84" style="mix-blend-mode: screen;isolation: isolate"/>
                        <path id="Path_59" data-name="Path 59" d="M400.043,282.2a5.569,5.569,0,0,0-3.827,8.451" transform="translate(-383.592 -203.566)" fill="none" stroke="#0f3246" stroke-linecap="round" stroke-linejoin="round" stroke-width="1" opacity="0.84" style="mix-blend-mode: screen;isolation: isolate"/>
                        <path id="Path_61" data-name="Path 61" d="M404.094,307.228a5.569,5.569,0,0,0-3.827,8.451" transform="translate(-383.703 -204.249)" fill="none" stroke="#0f3246" stroke-linecap="round" stroke-linejoin="round" stroke-width="1" opacity="0.84" style="mix-blend-mode: screen;isolation: isolate"/>
                      </g>
                      <path id="Path_62" data-name="Path 62" d="M441.52,301.17a5.567,5.567,0,0,0-3.827,8.451" transform="translate(-384.724 -204.083)" fill="none" stroke="#fc462d" stroke-linecap="round" stroke-linejoin="round" stroke-width="1" opacity="0.84" style="mix-blend-mode: screen;isolation: isolate"/>
                    </g>
                  </g>
                </g>
              </g>
              <g id="Group_39" data-name="Group 39" transform="translate(73.307 75.112)">
                <g id="Group_38" data-name="Group 38">
                  <g id="Group_35" data-name="Group 35" transform="translate(39.279)">
                    <path id="Rectangle_5" data-name="Rectangle 5" d="M2.608,0H35.274a2.608,2.608,0,0,1,2.608,2.608V18.481a0,0,0,0,1,0,0H0a0,0,0,0,1,0,0V2.608A2.608,2.608,0,0,1,2.608,0Z" transform="translate(4.31 2.81)" fill="none" stroke="#fff" stroke-miterlimit="10" stroke-width="4"/>
                    <rect id="Rectangle_6" data-name="Rectangle 6" width="46.501" height="7.22" rx="1.333" fill="#fc462d"/>
                  </g>
                  <g id="Group_37" data-name="Group 37" transform="translate(0 18.074)">
                    <rect id="Rectangle_7" data-name="Rectangle 7" width="125.06" height="96.432" rx="15.665" fill="#fff"/>
                    <g id="Group_36" data-name="Group 36" transform="translate(39.072 24.758)">
                      <rect id="Rectangle_8" data-name="Rectangle 8" width="14.075" height="46.915" transform="translate(16.42)" fill="#fc462d"/>
                      <rect id="Rectangle_9" data-name="Rectangle 9" width="14.075" height="46.915" transform="translate(0 30.495) rotate(-90)" fill="#fc462d"/>
                    </g>
                  </g>
                </g>
                <path id="Path_63" data-name="Path 63" d="M517.337,263.206a15.237,15.237,0,0,1,15.237,15.237V344.4a15.237,15.237,0,0,1-15.237,15.237H422.753S484.57,329.91,517.337,263.206Z" transform="translate(-407.515 -245.131)" fill="#fff" opacity="0.69" style="mix-blend-mode: multiply;isolation: isolate"/>
              </g>
              <g id="Group_48" data-name="Group 48" transform="translate(0 25.1)">
                <g id="Group_41" data-name="Group 41" transform="translate(177.839)">
                  <g id="Group_40" data-name="Group 40">
                    <path id="Path_64" data-name="Path 64" d="M521.876,242.894a8.535,8.535,0,0,0,9.612-7.24l2.259-16.048L516.9,217.235l-2.259,16.047A8.533,8.533,0,0,0,521.876,242.894Z" transform="translate(-514.553 -193.864)" fill="#e0abff"/>
                    <path id="Path_65" data-name="Path 65" d="M536.071,202.9a8.509,8.509,0,1,0-16.851-2.372l-2.259,16.048,16.851,2.371Z" transform="translate(-514.619 -193.209)" fill="#a865cf"/>
                  </g>
                  <path id="Path_66" data-name="Path 66" d="M523.843,197.468c1.122.159,1.108,6.862-.034,14.975s-2.978,14.56-4.1,14.4-1.108-6.863.034-14.975S522.719,197.31,523.843,197.468Z" transform="translate(-514.671 -193.325)" fill="#9ba6e9" opacity="0.51" style="mix-blend-mode: screen;isolation: isolate"/>
                </g>
                <g id="Group_43" data-name="Group 43" transform="translate(0 84.575)">
                  <g id="Group_42" data-name="Group 42">
                    <path id="Path_67" data-name="Path 67" d="M368.254,319.22a8.534,8.534,0,0,0,.518-12.022l-10.956-11.941-12.54,11.5L356.233,318.7A8.533,8.533,0,0,0,368.254,319.22Z" transform="translate(-332.093 -280.569)" fill="#85fef2"/>
                    <path id="Path_68" data-name="Path 68" d="M346.492,282.9a8.508,8.508,0,1,0-12.539,11.5l10.955,11.941,12.54-11.5Z" transform="translate(-331.724 -280.157)" fill="#3cd3c4"/>
                  </g>
                  <path id="Path_69" data-name="Path 69" d="M334.474,289.1c.836-.767,6,3.506,11.54,9.542s9.351,11.552,8.514,12.319-6-3.506-11.54-9.543S333.637,289.865,334.474,289.1Z" transform="translate(-331.795 -280.398)" fill="#ec9294" opacity="0.51" style="mix-blend-mode: screen;isolation: isolate"/>
                </g>
                <g id="Group_45" data-name="Group 45" transform="translate(202.074 24.803)">
                  <g id="Group_44" data-name="Group 44">
                    <path id="Path_70" data-name="Path 70" d="M540.269,244.8a8.534,8.534,0,0,0,11.316,4.09l14.672-6.88L559.032,226.6l-14.672,6.881A8.533,8.533,0,0,0,540.269,244.8Z" transform="translate(-539.468 -218.923)" fill="#ffc7b2"/>
                    <path id="Path_71" data-name="Path 71" d="M581.479,234.915a8.509,8.509,0,0,0-7.225-15.408l-14.672,6.881,7.225,15.408Z" transform="translate(-540.017 -218.707)" fill="#fe885c"/>
                  </g>
                  <path id="Path_72" data-name="Path 72" d="M579.217,221.67c.481,1.027-5.141,4.679-12.559,8.157s-13.82,5.466-14.3,4.439,5.141-4.68,12.559-8.157S578.735,220.643,579.217,221.67Z" transform="translate(-539.819 -218.781)" fill="#fc462d" style="mix-blend-mode: screen;isolation: isolate"/>
                </g>
                <g id="Group_47" data-name="Group 47" transform="translate(210.205 41.729)">
                  <g id="Group_46" data-name="Group 46">
                    <path id="Path_73" data-name="Path 73" d="M551.425,278.528a8.533,8.533,0,0,0,11.856-2.052l9.337-13.246-13.91-9.8-9.336,13.245A8.533,8.533,0,0,0,551.425,278.528Z" transform="translate(-547.827 -236.582)" fill="#ffefd3"/>
                    <path id="Path_74" data-name="Path 74" d="M582.26,249.511a8.508,8.508,0,0,0-13.909-9.8l-9.337,13.245,13.91,9.8Z" transform="translate(-548.132 -236.109)" fill="#f7d238"/>
                  </g>
                  <path id="Path_75" data-name="Path 75" d="M573.8,239.043c.927.654-2.148,6.611-6.867,13.307s-9.3,11.595-10.225,10.941,2.148-6.611,6.867-13.307S572.875,238.39,573.8,239.043Z" transform="translate(-548.065 -236.187)" fill="#f7d238" opacity="0.51" style="mix-blend-mode: screen;isolation: isolate"/>
                </g>
              </g>
            </g>
          </g>
        </g>
        <g id="Logo" transform="translate(40.205 30.545)">
          <path id="Path_86" data-name="Path 86" d="M137.85,37.282a3.118,3.118,0,0,1-4.843.71,9.692,9.692,0,0,1-1.1-1.44c-.394-.635-.7-1.324-1.066-1.979a.935.935,0,0,1-.046-.863,20.411,20.411,0,0,1,3.366-5.756c.2-.245.407-.477.656-.759a33.38,33.38,0,0,1,3.291,7.408,3.582,3.582,0,0,1-.261,2.677Zm-11.512-3.668a22.478,22.478,0,0,0-1.158,2.133,1.658,1.658,0,0,0-.108.228,2.062,2.062,0,0,0-.137.735,2.028,2.028,0,0,0,3.963.6c0-.008.041-.174.058-.245q.137-.616.311-1.22a23.356,23.356,0,0,1,7.071-11.163,23.343,23.343,0,0,0-10,8.931Zm11.935-22.521A11.091,11.091,0,0,0,127.181,0H115.13a3.605,3.605,0,0,0-3.606,3.6V35.419a3.3,3.3,0,0,0,3.3,3.3,3.378,3.378,0,0,0,3.3-3.3V22.306a.419.419,0,0,1,.415-.415h1.95a7.324,7.324,0,0,1,1.125.071,4.7,4.7,0,0,1,2.8,1.336,9.748,9.748,0,0,1,1.618,2.071c.714,1.245,2.245,4.1,2.357,4.3a37.439,37.439,0,0,1,5.266-4.382c-.946-1.726-1.075-1.95-2.187-3.967a11.289,11.289,0,0,0,6.793-10.229Zm-11.093,5.2h-8.628a.413.413,0,0,1-.415-.411V6.312a.418.418,0,0,1,.419-.419c2.394,0,8.623,0,8.623,0a5.176,5.176,0,0,1,5.2,5.2A5.294,5.294,0,0,1,127.181,16.288ZM75.851,31.514a1.7,1.7,0,0,1-.071,1.942,3.015,3.015,0,0,1-.826.743,4.686,4.686,0,0,1-1.992.635,12.638,12.638,0,0,1-4.146-.041,3.988,3.988,0,0,1-3.378-3.407,19.763,19.763,0,0,1-.253-3.565c-.012-2.843,0-6.117,0-8.96v-.938h-1.05a1.862,1.862,0,0,1-1.863-1.859h0A1.859,1.859,0,0,1,64.128,14.2h1.05V9.47a2.6,2.6,0,0,1,2.6-2.6h0a2.6,2.6,0,0,1,2.6,2.6v4.739h2.191a1.863,1.863,0,0,1,1.863,1.863h0a1.863,1.863,0,0,1-1.863,1.863H70.373v.531c0,3.287,0,7,.012,10.292a6.291,6.291,0,0,0,.087.925A1.4,1.4,0,0,0,71.971,31a7.118,7.118,0,0,0,1.067-.124c.353-.05.705-.112,1.058-.17a1.616,1.616,0,0,1,1.747.826Zm3.54-22.081a2.56,2.56,0,0,1,2.594-2.565,2.494,2.494,0,0,1,2.6,2.523,2.475,2.475,0,0,1-2.556,2.577,2.439,2.439,0,0,1-2.635-2.536ZM37.959,14.2A19.332,19.332,0,1,1,19.33.046h7.706l4.5,4.718-1.714,1.8L27.036,9.482H19.33A9.892,9.892,0,1,0,27.763,14.2h10.2ZM35.021,4.764,30.518.046h3.743l4.5,4.718-4.5,4.718H30.518l.867-.909,3.635-3.81ZM84.578,17.189h.012v14.6h0a6.934,6.934,0,0,1-.079,1.013,2.493,2.493,0,0,1-2.386,2.187,2.4,2.4,0,0,1-2.631-2.038,5.97,5.97,0,0,1-.1-1.116v-.042h0v-14.6H79.4a5.985,5.985,0,0,1,.091-.942,2.392,2.392,0,0,1,2.631-2.038A2.489,2.489,0,0,1,84.512,16.4c.037.266.058.531.071.8Zm23.189,3.934a10.129,10.129,0,0,0-1.141-2.61,9.314,9.314,0,0,0-3.071-2.922c-.108-.062-.22-.124-.332-.183a3.333,3.333,0,0,0-.386-.191,10.32,10.32,0,0,0-2.909-.88c-.087-.017-.178-.029-.27-.041-.245-.033-.49-.062-.739-.079-.137-.012-.274-.021-.419-.025s-.307-.008-.469-.008h-.017a10.244,10.244,0,0,0-9.74,7.146,13.836,13.836,0,0,0-.452,3.233,10.325,10.325,0,0,0,.274,2.473,9.178,9.178,0,0,0,6.557,7.47,11.413,11.413,0,0,0,5.669.266,10.662,10.662,0,0,0,2.191-.643,9.55,9.55,0,0,0,4.158-3.565,9.705,9.705,0,0,0,.735-1.469,12.034,12.034,0,0,0,.361-7.972Zm-5.171,6.5a5.239,5.239,0,0,1-1.56,2.386,4.5,4.5,0,0,1-3.469,1.033A4.451,4.451,0,0,1,93.7,28.09a9.554,9.554,0,0,1-.622-3.888,8.165,8.165,0,0,1,.755-3.411,4.352,4.352,0,0,1,3.1-2.548A4.622,4.622,0,0,1,102.381,21a6.952,6.952,0,0,1,.569,2.121,10.732,10.732,0,0,1-.353,4.5Zm-41.2-6.959a8.789,8.789,0,0,0-2.3-4.038,7.969,7.969,0,0,0-5.482-2.382,7.417,7.417,0,0,0-5.582,2.062c-.378.357-.772.7-1.2,1.083,0-.058-.008-.12-.012-.183v-.556a2.47,2.47,0,0,0-.722-1.743,2.306,2.306,0,0,0-.386-.311c-.029-.017-.058-.033-.083-.05a2,2,0,0,0-.245-.133c-.021-.012-.042-.021-.058-.029a.014.014,0,0,1-.008,0c-.1-.037-.2-.071-.295-.1a.606.606,0,0,0-.083-.021l-.083-.025-.108-.008a2.437,2.437,0,0,0-.3-.033l-.1-.008h-.017c-.037,0-.079,0-.12.008-.017,0-.029,0-.046,0a.115.115,0,0,1-.037,0,.081.081,0,0,1-.033,0c-.041,0-.087.012-.129.017a2.1,2.1,0,0,0-1.689,1.1,2.448,2.448,0,0,0-.394,1.332V40.088a2.435,2.435,0,0,0,2.436,2.44h.058a2.441,2.441,0,0,0,2.436-2.44h0V31.659c.2.2.436.44.647.66a7.738,7.738,0,0,0,3.146,2.187,8.292,8.292,0,0,0,5.71-.166,8,8,0,0,0,4.528-4.511,13.718,13.718,0,0,0,.548-9.163Zm-4.955,6.246a6.1,6.1,0,0,1-1.606,2.876,4.49,4.49,0,0,1-5.536.241A6.518,6.518,0,0,1,47.039,24.7c-.025-2.179.548-4.536,2.457-5.818a4.351,4.351,0,0,1,6.337,1.672A8.588,8.588,0,0,1,56.438,26.912Z" transform="translate(0 10)" fill="#fff"/>
        </g>
        <rect id="Rectangle_5555" data-name="Rectangle 5555" width="179" height="75" transform="translate(29 23)" fill="#fff"/>
      </g>
    </g>
  </g>
</svg>
