<svg xmlns="http://www.w3.org/2000/svg" width="58.288" height="373.042" viewBox="0 0 58.288 373.042">
  <path id="About_me" data-name="About me" d="M353.892,1.116A26.319,26.319,0,0,1,342.041-1.4a18.016,18.016,0,0,1-7.757-7.245A22.029,22.029,0,0,1,331.6-19.712a22.611,22.611,0,0,1,2.562-10.824,18.948,18.948,0,0,1,7.116-7.47,20.1,20.1,0,0,1,10.38-2.688,19.249,19.249,0,0,1,9.957,2.534A16.8,16.8,0,0,1,368.2-30.9a24.671,24.671,0,0,1,2.284,10.884v2.348H345.974c.3,2.6,1.1,4.511,2.4,5.673,1.387,1.244,3.477,1.874,6.211,1.874a18.22,18.22,0,0,0,5.7-.937,19.408,19.408,0,0,0,5.18-2.589l.526-.373,3.909,10.2-.307.226A23.311,23.311,0,0,1,362.35-.137,29.781,29.781,0,0,1,353.892,1.116Zm-2.233-40.81a19.11,19.11,0,0,0-9.871,2.548,17.962,17.962,0,0,0-6.744,7.083A21.625,21.625,0,0,0,332.6-19.712a21.046,21.046,0,0,0,2.552,10.57A17.032,17.032,0,0,0,342.489-2.3a25.335,25.335,0,0,0,11.4,2.411A28.781,28.781,0,0,0,362.066-1.1a22.646,22.646,0,0,0,6.621-3.089l-3.177-8.289a20.568,20.568,0,0,1-4.917,2.361,19.217,19.217,0,0,1-6.008.988c-2.988,0-5.3-.717-6.879-2.13s-2.516-3.729-2.782-6.875l-.046-.542h24.607V-20.02A23.686,23.686,0,0,0,367.3-30.465a15.818,15.818,0,0,0-6.2-6.834A18.266,18.266,0,0,0,351.659-39.694ZM227.843,1.116a20.614,20.614,0,0,1-7.152-1.148,13.415,13.415,0,0,1-5.266-3.479,15.051,15.051,0,0,1-3.2-5.514,22.964,22.964,0,0,1-1.055-7.222V-28.375h-7.315V-39.616h7.315v-8.72l14.937-4.786v13.506H235.5v11.241H226.11v12.128a4.721,4.721,0,0,0,1.482,3.818,5.561,5.561,0,0,0,3.793,1.3,19.5,19.5,0,0,0,3.6-.452l.6-.12V-.2l-.312.127A20.008,20.008,0,0,1,227.843,1.116ZM204.858-29.375h7.315v13.128c0,5.133,1.341,9.19,3.987,12.058s6.566,4.3,11.683,4.3a19.647,19.647,0,0,0,6.738-1v-9.6a18.547,18.547,0,0,1-3.2.357,6.606,6.606,0,0,1-4.446-1.546,5.73,5.73,0,0,1-1.829-4.575V-29.375H234.5v-9.241H225.11V-51.752l-12.937,4.146v8.99h-7.315ZM175.175,1.116A19.165,19.165,0,0,1,168.484.045a11.821,11.821,0,0,1-4.811-3.257,14.02,14.02,0,0,1-2.848-5.447,27.689,27.689,0,0,1-.934-7.588V-39.616h14.937v23.754a6.025,6.025,0,0,0,1.129,4,4.194,4.194,0,0,0,3.376,1.271,5.453,5.453,0,0,0,4.358-1.907,7.7,7.7,0,0,0,1.687-5.216V-39.616h15.091V.5H185.84V-3.687A12.982,12.982,0,0,1,175.175,1.116ZM160.891-38.616v22.369c0,5.546,1.189,9.71,3.533,12.375,2.328,2.646,5.945,3.988,10.751,3.988,4.791,0,8.305-1.839,10.745-5.623l.92-1.427V-.5h12.629V-38.616H186.378V-17.71a8.664,8.664,0,0,1-1.932,5.872,6.483,6.483,0,0,1-5.113,2.251A5.193,5.193,0,0,1,175.2-11.2a6.96,6.96,0,0,1-1.373-4.659V-38.616ZM132.748,1.116A25.465,25.465,0,0,1,121.126-1.4a18.044,18.044,0,0,1-7.678-7.283,22.245,22.245,0,0,1-2.683-11.1,22.245,22.245,0,0,1,2.683-11.1,18.044,18.044,0,0,1,7.678-7.283,25.465,25.465,0,0,1,11.622-2.518,24.73,24.73,0,0,1,11.511,2.559,18.4,18.4,0,0,1,7.634,7.28,22.029,22.029,0,0,1,2.684,11.067,22.029,22.029,0,0,1-2.684,11.067,18.4,18.4,0,0,1-7.634,7.28A24.73,24.73,0,0,1,132.748,1.116Zm0-40.81a24.481,24.481,0,0,0-11.17,2.41,17.061,17.061,0,0,0-7.26,6.885,21.263,21.263,0,0,0-2.553,10.611,21.263,21.263,0,0,0,2.553,10.61,17.061,17.061,0,0,0,7.26,6.885,24.481,24.481,0,0,0,11.17,2.41A23.746,23.746,0,0,0,143.8-2.33a17.419,17.419,0,0,0,7.227-6.888,21.046,21.046,0,0,0,2.552-10.57,21.046,21.046,0,0,0-2.552-10.57,17.419,17.419,0,0,0-7.227-6.888A23.746,23.746,0,0,0,132.748-39.694ZM89.166,1.116a16.675,16.675,0,0,1-7.38-1.629,12.051,12.051,0,0,1-4.132-3.2V.5H62.871V-57.172H77.808v21.253a13.1,13.1,0,0,1,4.127-3.144,16.013,16.013,0,0,1,7.231-1.631,16.966,16.966,0,0,1,9.278,2.581,17.263,17.263,0,0,1,6.3,7.33,25.1,25.1,0,0,1,2.243,10.841,25.177,25.177,0,0,1-2.282,10.958,18.015,18.015,0,0,1-6.336,7.44A16.467,16.467,0,0,1,89.166,1.116ZM76.654-7.162l.932,1.6a10.582,10.582,0,0,0,4.638,4.153A15.685,15.685,0,0,0,89.166.116a15.483,15.483,0,0,0,8.658-2.5,17.03,17.03,0,0,0,5.984-7.036,24.19,24.19,0,0,0,2.184-10.525,24.109,24.109,0,0,0-2.146-10.411,16.28,16.28,0,0,0-5.939-6.915,15.982,15.982,0,0,0-8.74-2.424,15.023,15.023,0,0,0-6.783,1.526,11.568,11.568,0,0,0-4.655,4.021l-.92,1.421V-56.172H63.871V-.5H76.654ZM326.287.5H311.35V-22.946a8.813,8.813,0,0,0-.954-4.725,3.424,3.424,0,0,0-3.089-1.32,4.836,4.836,0,0,0-4.143,1.956,9.543,9.543,0,0,0-1.517,5.783V.5H286.71V-22.946a8.541,8.541,0,0,0-.988-4.718,3.437,3.437,0,0,0-3.055-1.327,4.735,4.735,0,0,0-4.1,1.951,9.725,9.725,0,0,0-1.482,5.788V.5H262.147V-27.874a91.433,91.433,0,0,0-.612-11.18l-.07-.562h14.1l.574,4.526a12.574,12.574,0,0,1,4.411-3.851,16.028,16.028,0,0,1,7.588-1.752c5.458,0,9.316,2.21,11.482,6.572a16,16,0,0,1,5.175-4.583,15.481,15.481,0,0,1,7.675-1.989c4.657,0,8.17,1.463,10.441,4.349a14.618,14.618,0,0,1,2.546,5.44,30.721,30.721,0,0,1,.834,7.574ZM312.35-.5h12.937V-23.331c0-5.557-1.065-9.727-3.165-12.4-2.072-2.632-5.32-3.967-9.656-3.967a14.493,14.493,0,0,0-7.186,1.861,14.977,14.977,0,0,0-5.33,4.993l-.512.8-.369-.871c-1.934-4.562-5.511-6.779-10.936-6.779a15.042,15.042,0,0,0-7.119,1.636A11.619,11.619,0,0,0,276.25-33.4l-.742,1.322-.828-6.533H262.595a94.368,94.368,0,0,1,.552,10.742V-.5h12.937V-21.252a10.673,10.673,0,0,1,1.675-6.378,5.745,5.745,0,0,1,4.908-2.361,4.418,4.418,0,0,1,3.875,1.753c.786,1.123,1.168,2.854,1.168,5.292V-.5h12.937V-21.252a10.491,10.491,0,0,1,1.717-6.383,5.849,5.849,0,0,1,4.943-2.356,4.4,4.4,0,0,1,3.918,1.76c.757,1.122,1.125,2.85,1.125,5.285ZM61.771.5H46.409L41.558-10.819H17.886L13.035.5H-2.557L23.552-55.324H35.584l.135.288Zm-14.7-1H60.2L34.948-54.324H24.188L-.985-.5h13.36l4.851-11.319H42.218Zm85.679-8.779a7.428,7.428,0,0,1-6.167-2.615c-1.349-1.7-2.033-4.356-2.033-7.9,0-3.488.684-6.118,2.033-7.818a7.428,7.428,0,0,1,6.167-2.615A7.228,7.228,0,0,1,138.8-27.6c1.322,1.7,1.992,4.328,1.992,7.814,0,3.432-.669,6.059-1.987,7.808A7.138,7.138,0,0,1,132.748-9.279Zm0-19.943a6.4,6.4,0,0,0-5.383,2.236c-1.205,1.519-1.817,3.94-1.817,7.2,0,3.308.611,5.755,1.817,7.274a6.4,6.4,0,0,0,5.383,2.236c4.741,0,7.046-3.111,7.046-9.51,0-3.258-.6-5.681-1.781-7.2A6.2,6.2,0,0,0,132.748-29.222ZM84.931-9.279a7.421,7.421,0,0,1-6.168-2.732c-1.4-1.776-2.109-4.393-2.109-7.778,0-3.283.71-5.848,2.109-7.624a7.421,7.421,0,0,1,6.168-2.732,7.247,7.247,0,0,1,6.094,2.7c1.346,1.75,2.029,4.275,2.029,7.5,0,3.381-.694,6.02-2.063,7.846A7.148,7.148,0,0,1,84.931-9.279Zm0-19.866a6.389,6.389,0,0,0-5.382,2.35c-1.257,1.6-1.895,3.953-1.895,7.006,0,3.155.638,5.564,1.895,7.16a6.389,6.389,0,0,0,5.382,2.35A6.121,6.121,0,0,0,90.19-12.7c1.237-1.649,1.863-4.087,1.863-7.246,0-3-.613-5.324-1.821-6.895A6.22,6.22,0,0,0,84.931-29.145Zm-46.98,7.469H21.493l8.229-19.088Zm-14.938-1H36.431L29.722-38.238ZM358.618-24.14H344.955l.132-.606a8.934,8.934,0,0,1,2.42-4.764,6.431,6.431,0,0,1,4.537-1.635,6.07,6.07,0,0,1,4.473,1.648,8.052,8.052,0,0,1,2.029,4.794Zm-12.407-1h11.258c-.585-3.367-2.364-5.006-5.425-5.006C349.02-30.146,347.107-28.507,346.211-25.14Z" transform="translate(57.172 370.485) rotate(-90)" fill="#5c38a5" opacity="0.2"/>
</svg>
