<svg xmlns="http://www.w3.org/2000/svg" width="21.001" height="21.002" viewBox="0 0 21.001 21.002">
  <path id="Icon_metro-dribbble" data-name="Icon metro-dribbble" d="M13.81,10.334a54.547,54.547,0,0,0-3.33-5.168,8.99,8.99,0,0,0-4.95,6.263,33.158,33.158,0,0,0,8.28-1.095Zm1.116,3.013c.116-.038.235-.073.353-.107-.225-.51-.47-1.022-.727-1.525a32.784,32.784,0,0,1-9.206,1.278c0,.1-.008.189-.008.285a8.928,8.928,0,0,0,2.3,5.995l-.006-.007a14.194,14.194,0,0,1,7.293-5.919Zm-6.132,7v0c-.066-.051-.137-.1-.2-.154C8.712,20.286,8.794,20.347,8.794,20.347ZM12.158,4.571l-.017,0a.06.06,0,0,1,.016,0v0Zm8.071,1.977a8.962,8.962,0,0,0-8.037-1.986,45.976,45.976,0,0,1,3.353,5.232,9.775,9.775,0,0,0,4.683-3.246ZM14.306,23.778a10.5,10.5,0,1,1,10.5-10.5,10.5,10.5,0,0,1-10.5,10.5Zm1.525-9.033c-5.263,1.834-7,5.522-7.037,5.6a8.959,8.959,0,0,0,9.011,1.193,37.163,37.163,0,0,0-1.916-6.811l-.058.021Zm.4-3.614c.21.426.409.861.6,1.3.067.154.13.31.194.463a20.805,20.805,0,0,1,6.247.292,8.948,8.948,0,0,0-2.04-5.607,11.6,11.6,0,0,1-5,3.551Zm1.337,3.179a39.009,39.009,0,0,1,1.745,6.4A8.969,8.969,0,0,0,23.16,14.7a13.041,13.041,0,0,0-5.588-.389Z" transform="translate(-3.806 -2.776)" fill="#5c38a5"/>
</svg>
