<svg xmlns="http://www.w3.org/2000/svg" width="21.039" height="22.421" viewBox="0 0 21.039 22.421">
  <path id="Icon_feather-github" data-name="Icon feather-github" d="M9.957,19.375C4.988,20.866,4.988,16.891,3,16.394m13.914,5.963V18.511a3.349,3.349,0,0,0-.934-2.594c3.121-.348,6.4-1.53,6.4-6.957a5.406,5.406,0,0,0-1.49-3.726,5.039,5.039,0,0,0-.09-3.747s-1.173-.348-3.886,1.471a13.3,13.3,0,0,0-6.957,0C7.244,1.139,6.071,1.486,6.071,1.486a5.039,5.039,0,0,0-.089,3.747A5.406,5.406,0,0,0,4.491,8.99c0,5.387,3.28,6.569,6.4,6.957a3.349,3.349,0,0,0-.934,2.564v3.846" transform="translate(-2.091 -0.686)" fill="none" stroke="#5c38a5" stroke-linecap="round" stroke-linejoin="round" stroke-width="1.5"/>
</svg>
