<svg xmlns="http://www.w3.org/2000/svg" width="30" height="30" viewBox="0 0 30 30">
  <g id="Icon_feather-layout" data-name="Icon feather-layout" transform="translate(-3 -3)">
    <path id="Path_24" data-name="Path 24" d="M7.5,3h21A4.505,4.505,0,0,1,33,7.5v21A4.505,4.505,0,0,1,28.5,33H7.5A4.505,4.505,0,0,1,3,28.5V7.5A4.505,4.505,0,0,1,7.5,3Zm21,27A1.5,1.5,0,0,0,30,28.5V7.5A1.5,1.5,0,0,0,28.5,6H7.5A1.5,1.5,0,0,0,6,7.5v21A1.5,1.5,0,0,0,7.5,30Z" fill="#5c38a5"/>
    <path id="Path_25" data-name="Path 25" d="M31.5,15H4.5a1.5,1.5,0,0,1,0-3h27a1.5,1.5,0,0,1,0,3Z" fill="#5c38a5"/>
    <path id="Path_26" data-name="Path 26" d="M13.5,33A1.5,1.5,0,0,1,12,31.5v-18a1.5,1.5,0,0,1,3,0v18A1.5,1.5,0,0,1,13.5,33Z" fill="#5c38a5"/>
  </g>
</svg>
