<svg xmlns="http://www.w3.org/2000/svg" width="33" height="21" viewBox="0 0 33 21">
  <g id="Icon_feather-code" data-name="Icon feather-code" transform="translate(-1.5 -7.5)">
    <path id="Path_22" data-name="Path 22" d="M24,28.5a1.5,1.5,0,0,1-1.061-2.561L30.879,18l-7.939-7.939a1.5,1.5,0,0,1,2.121-2.121l9,9a1.5,1.5,0,0,1,0,2.121l-9,9A1.5,1.5,0,0,1,24,28.5Z" fill="#5c38a5"/>
    <path id="Path_23" data-name="Path 23" d="M12,28.5a1.5,1.5,0,0,1-1.061-.439l-9-9a1.5,1.5,0,0,1,0-2.121l9-9a1.5,1.5,0,0,1,2.121,2.121L5.121,18l7.939,7.939A1.5,1.5,0,0,1,12,28.5Z" fill="#5c38a5"/>
  </g>
</svg>
