<svg xmlns="http://www.w3.org/2000/svg" width="27" height="30" viewBox="0 0 27 30">
  <g id="Icon_feather-hash" data-name="Icon feather-hash" transform="translate(-4.5 -3)">
    <path id="Path_27" data-name="Path 27" d="M30,15H6a1.5,1.5,0,0,1,0-3H30a1.5,1.5,0,0,1,0,3Z" fill="#5c38a5"/>
    <path id="Path_28" data-name="Path 28" d="M30,24H6a1.5,1.5,0,0,1,0-3H30a1.5,1.5,0,0,1,0,3Z" fill="#5c38a5"/>
    <path id="Path_29" data-name="Path 29" d="M12,33a1.516,1.516,0,0,1-.167-.009,1.5,1.5,0,0,1-1.325-1.656l3-27a1.5,1.5,0,1,1,2.982.331l-3,27A1.5,1.5,0,0,1,12,33Z" fill="#5c38a5"/>
    <path id="Path_30" data-name="Path 30" d="M21,33a1.516,1.516,0,0,1-.167-.009,1.5,1.5,0,0,1-1.325-1.656l3-27a1.5,1.5,0,1,1,2.982.331l-3,27A1.5,1.5,0,0,1,21,33Z" fill="#5c38a5"/>
  </g>
</svg>
