<svg xmlns="http://www.w3.org/2000/svg" width="40.283" height="39.335" viewBox="0 0 40.283 39.335">
  <path id="moon" d="M127.5,75.739a21.437,21.437,0,0,1-13.179-4.508A20.562,20.562,0,0,1,106.9,59.677,20.179,20.179,0,0,1,108.5,46.131a20.877,20.877,0,0,1,9.9-9.613,1.2,1.2,0,0,1,1.344.225,1.133,1.133,0,0,1,.231,1.312,17.926,17.926,0,0,0-1.555,10.985,18.173,18.173,0,0,0,5.223,9.848,18.915,18.915,0,0,0,10.085,5.1,19.16,19.16,0,0,0,11.25-1.518,1.2,1.2,0,0,1,1.344.225,1.133,1.133,0,0,1,.231,1.312,20.571,20.571,0,0,1-4.125,5.692,21.017,21.017,0,0,1-6.844,4.48,21.419,21.419,0,0,1-8.083,1.56ZM116.617,40.2a18.4,18.4,0,0,0-6.4,7.776,17.92,17.92,0,0,0-1.276,9.9,18.119,18.119,0,0,0,4.224,9.082,18.788,18.788,0,0,0,8.472,5.574,19.193,19.193,0,0,0,10.207.412,18.883,18.883,0,0,0,8.914-4.872,18.472,18.472,0,0,0,2.019-2.324A21.585,21.585,0,0,1,128.1,64.687a20.875,20.875,0,0,1-10.4-10.158A20.173,20.173,0,0,1,116.617,40.2Z" transform="translate(-106.383 -36.404)"/>
</svg>
