<svg xmlns="http://www.w3.org/2000/svg" xmlns:xlink="http://www.w3.org/1999/xlink" width="321.454" height="228.972" viewBox="0 0 321.454 228.972">
  <defs>
    <linearGradient id="linear-gradient" x1="0.172" y1="0.179" x2="0.883" y2="0.893" gradientUnits="objectBoundingBox">
      <stop offset="0" stop-color="#b9a26f"/>
      <stop offset="1" stop-color="#8f7136"/>
    </linearGradient>
  </defs>
  <g id="my-logo" transform="translate(-3565.546 -2643.594)">
    <g id="Group_7" data-name="Group 7" transform="translate(3565.546 2643.594)">
      <path id="Path_1" data-name="Path 1" d="M171.368,145.1v9.886H88.454V145.1l34.441-4.305L59.752-34.233,3.307,110.974q-5.74,14.67-5.74,21.526t1.913,9.727q1.913,2.87,20.091,2.87v9.886H-49.95V145.1q16.583.319,24.077-4.305t16.423-29.817L59.752-70.8H72.509L147.77,145.1ZM56.245-23.284ZM271.5,84.824q0,36.993-29.658,56.446-25.512,16.9-64.1,16.9-23.28,0-51.981-10.843l.319-50.706h9.567q1.913,25.193,14.988,36.355,6.059,5.1,17.859,8.61a67.689,67.689,0,0,0,21.366,3.189q22-.319,38.587-11.8,16.264-11.8,16.9-31.571,0-20.729-14.51-33.166T190.821,52.934Q122.9,44.643,122.9-3.83q0-33.8,25.831-51.343,22-15.307,53.576-15.307a108.16,108.16,0,0,1,22,2.711q12.756,2.711,16.423,2.711c2.445,0,4.943-4.784,4.943-4.784H254.6V-12.76h-9.567q-2.232-23.6-14.191-34.123t-35.558-10.2q-46.56.638-45.922,41.776Q150,21.363,200.389,26.465,271.5,34.119,271.5,84.824Z" transform="translate(49.95 70.8)" fill="url(#linear-gradient)"/>
      <g id="Group_4" data-name="Group 4" transform="translate(21.796 89.987)">
        <path id="Path_14" data-name="Path 14" d="M186.888,637.763c-12.94,0-23.432-10.952-23.432-24.46v-6.964h10.576c12.942,0,23.434,10.948,23.434,24.461v6.963Z" transform="translate(-159.698 -606.339)" fill="url(#linear-gradient)"/>
        <path id="Path_15" data-name="Path 15" d="M20.282,21.4C9.082,21.4,0,13.944,0,4.744V0H9.154c11.2,0,20.283,7.457,20.283,16.66V21.4Z" transform="matrix(-0.588, 0.809, -0.809, -0.588, 34.617, 37.745)" fill="url(#linear-gradient)"/>
      </g>
    </g>
  </g>
</svg>
