<svg xmlns="http://www.w3.org/2000/svg" width="44.807" height="44.807" viewBox="0 0 44.807 44.807">
  <path id="sun" d="M94.215,36.572a12.539,12.539,0,1,1,3.674,8.861l0-.006a12.493,12.493,0,0,1-3.669-8.855Zm12.532,6.362a.944.944,0,0,1,0,1.887A8.25,8.25,0,0,1,98.5,36.572a.944.944,0,1,1,1.887,0,6.36,6.36,0,0,0,6.361,6.362ZM84.941,37.34a.944.944,0,0,1,0-1.887h5.065a.944.944,0,0,1,0,1.887Zm37.855,0a.944.944,0,0,1,0-1.887h5.065a.944.944,0,0,1,0,1.887Zm-30.9,14.9A.943.943,0,0,1,90.559,50.9l3.581-3.581a.943.943,0,0,1,1.334,1.334ZM118.66,25.47a.943.943,0,0,1-1.334-1.334l3.581-3.581a.943.943,0,0,1,1.334,1.334ZM122.243,50.9a.943.943,0,0,1-1.334,1.334l-3.581-3.581a.943.943,0,0,1,1.334-1.334ZM95.475,24.136a.943.943,0,0,1-1.334,1.334L90.56,21.888a.943.943,0,0,1,1.334-1.334Zm11.87,33.721a.944.944,0,0,1-1.887,0V52.793a.944.944,0,0,1,1.887,0Zm0-37.855a.944.944,0,0,1-1.887,0V14.937a.944.944,0,0,1,1.887,0Zm-8.127,9.041a10.655,10.655,0,1,0,7.529-3.116,10.622,10.622,0,0,0-7.529,3.116Z" transform="translate(-83.997 -13.993)"/>
</svg>
